<?xml version="1.0" encoding="UTF-8"?>
<svg version="1.1" xmlns="http://www.w3.org/2000/svg" width="64" height="64">
<path d="M0 0 C6.27 0 12.54 0 19 0 C19 1.65 19 3.3 19 5 C20.65 5 22.3 5 24 5 C24 4.34 24 3.68 24 3 C34.23 3 44.46 3 55 3 C55 15.54 55 28.08 55 41 C36.85 41 18.7 41 0 41 C0 27.47 0 13.94 0 0 Z " fill="#D99D24" transform="translate(4,12)"/>
<path d="M0 0 C4.39148352 1.52747253 4.39148352 1.52747253 5.875 4 C6.0625 7.6875 6.0625 7.6875 5.875 11 C7.195 11.33 8.515 11.66 9.875 12 C9.90184679 14.64590014 9.92176357 17.29153096 9.9375 19.9375 C9.94587891 20.69224609 9.95425781 21.44699219 9.96289062 22.22460938 C9.97152441 24.14994313 9.92724333 26.07535581 9.875 28 C8.31893249 29.55606751 6.81542629 29.12970769 4.65625 29.1328125 C3.38201172 29.13474609 3.38201172 29.13474609 2.08203125 29.13671875 C0.74205078 29.13091797 0.74205078 29.13091797 -0.625 29.125 C-1.51832031 29.12886719 -2.41164063 29.13273437 -3.33203125 29.13671875 C-4.18152344 29.13542969 -5.03101563 29.13414063 -5.90625 29.1328125 C-6.69064453 29.13168457 -7.47503906 29.13055664 -8.28320312 29.12939453 C-10.125 29 -10.125 29 -11.125 28 C-11.19819621 25.30345146 -11.21742537 22.63308542 -11.1875 19.9375 C-11.18298828 19.17888672 -11.17847656 18.42027344 -11.17382812 17.63867188 C-11.1620068 15.75908129 -11.14407078 13.87953101 -11.125 12 C-10.135 11.67 -9.145 11.34 -8.125 11 C-8.228125 10.113125 -8.33125 9.22625 -8.4375 8.3125 C-8.125 5 -8.125 5 -6 2.0625 C-3.125 0 -3.125 0 0 0 Z " fill="#080500" transform="translate(33.125,20)"/>
<path d="M0 0 C5.61 0 11.22 0 17 0 C17 1.32 17 2.64 17 4 C18.98 4 20.96 4 23 4 C23 5.32 23 6.64 23 8 C15.41 8 7.82 8 0 8 C0 5.36 0 2.72 0 0 Z " fill="#E0A229" transform="translate(5,14)"/>
<path d="M0 0 C3.0625 0.1875 3.0625 0.1875 5.0625 2.1875 C5.1875 5.3125 5.1875 5.3125 5.0625 8.1875 C1.7625 8.1875 -1.5375 8.1875 -4.9375 8.1875 C-3.92735959 0.25068253 -3.92735959 0.25068253 0 0 Z " fill="#CB9320" transform="translate(31.9375,22.8125)"/>
<path d="M0 0 C7.59 0 15.18 0 23 0 C23 0.99 23 1.98 23 3 C15.41 3 7.82 3 0 3 C0 2.01 0 1.02 0 0 Z " fill="#F2EBE3" transform="translate(5,19)"/>
<path d="M0 0 C1.32 0 2.64 0 4 0 C4 2.97 4 5.94 4 9 C2.68 9 1.36 9 0 9 C0 6.03 0 3.06 0 0 Z " fill="#C48E1F" transform="translate(30,35)"/>
<path d="M0 0 C2.97 0.495 2.97 0.495 6 1 C6 1.33 6 1.66 6 2 C5.236875 2.020625 4.47375 2.04125 3.6875 2.0625 C0.58610882 2.79660949 0.58610882 2.79660949 -0.8125 6.5625 C-1.204375 7.696875 -1.59625 8.83125 -2 10 C-2.33 10 -2.66 10 -3 10 C-3.36923077 4.58461538 -3.36923077 4.58461538 -1.5 1.625 C-1.005 1.08875 -0.51 0.5525 0 0 Z " fill="#2A1E07" transform="translate(28,21)"/>
<path d="M0 0 C5.53846154 0.49230769 5.53846154 0.49230769 7.875 3.0625 C8.431875 4.0215625 8.431875 4.0215625 9 5 C5.85262818 4.30058404 2.97411124 3.23921302 0 2 C0 1.34 0 0.68 0 0 Z " fill="#1A1101" transform="translate(30,20)"/>
</svg>
